<svg xmlns="http://www.w3.org/2000/svg" viewBox="0 0 200 200">
  <path d="M30 100 Q50 55 100 50 Q150 55 170 100" fill="none" stroke="#5B8C5A" stroke-width="5"/>
  <path d="M50 80 Q65 60 100 55 Q135 60 150 80" fill="none" stroke="#5B8C5A" stroke-width="4"/>
  <path d="M70 65 Q80 55 100 52 Q120 55 130 65" fill="none" stroke="#5B8C5A" stroke-width="3"/>
  <path d="M30 100 Q40 85 55 80 L60 85 Q48 90 40 100 Z" fill="#5B8C5A"/>
  <path d="M170 100 Q160 85 145 80 L140 85 Q152 90 160 100 Z" fill="#5B8C5A"/>
  <path d="M35 100 L55 100 L55 108 L35 108 Z" fill="#5B8C5A"/>
  <path d="M145 100 L165 100 L165 108 L145 108 Z" fill="#5B8C5A"/>
  <rect x="40" y="108" width="120" height="35" rx="4" fill="none" stroke="#5B8C5A" stroke-width="3"/>
  <text x="100" y="130" text-anchor="middle" font-size="16" font-weight="bold" fill="#5B8C5A" font-family="serif" letter-spacing="2">ASTON MARTIN</text>
</svg>