<svg xmlns="http://www.w3.org/2000/svg" viewBox="0 0 200 200">
  <path d="M100 30 C100 30 115 40 120 55 C125 70 120 80 120 80 L125 95 C130 90 140 88 140 88 C140 88 135 100 125 105 C130 108 132 115 130 120 C128 128 120 130 115 132 L110 140 C112 145 110 155 100 155 C90 155 88 145 90 140 L85 132 C80 130 72 128 70 120 C68 115 70 108 75 105 C65 100 60 88 60 88 C60 88 70 90 75 95 L80 80 C80 80 75 70 80 55 C85 40 100 30 100 30Z" fill="#CC0000"/>
  <ellipse cx="88" cy="65" rx="4" ry="5" fill="#FFD700"/>
  <ellipse cx="112" cy="65" rx="4" ry="5" fill="#FFD700"/>
  <path d="M85 80 C90 88 110 88 115 80" fill="none" stroke="#CC0000" stroke-width="1.5"/>
  <text x="100" y="185" text-anchor="middle" font-family="Arial,sans-serif" font-size="24" font-weight="bold" fill="#CC0000" letter-spacing="6">DODGE</text>
</svg>