<svg xmlns="http://www.w3.org/2000/svg" viewBox="0 0 200 200">
  <path d="M100 10 L170 50 L170 140 L100 190 L30 140 L30 50 Z" fill="#DC0000" stroke="#8B0000" stroke-width="3"/>
  <path d="M100 20 L160 55 L160 135 L100 180 L40 135 L40 55 Z" fill="#FFD700"/>
  <path d="M120 75 C118 60 125 48 135 42 C130 50 128 62 130 72 C132 82 138 90 145 95 C140 92 132 88 126 90 C120 92 116 98 114 108 C112 98 108 90 102 86 C108 88 115 90 120 85 Z" fill="#000"/>
  <path d="M118 108 C116 118 114 128 112 135 L116 135 C118 128 120 118 121 108 Z" fill="#000"/>
  <path d="M102 86 C96 82 90 82 85 86 C90 80 96 78 104 80 Z" fill="#DC0000"/>
  <path d="M135 42 L140 38 L138 45 Z" fill="#000"/>
  <path d="M125 55 C128 52 132 52 134 56" fill="none" stroke="#000" stroke-width="1"/>
  <path d="M60 155 L80 148 L85 160 L100 150 L115 160 L120 148 L140 155 L130 170 L100 178 L70 170 Z" fill="#DC0000" stroke="#8B0000" stroke-width="1"/>
  <rect x="30" y="170" width="140" height="12" rx="2" fill="#009A44"/>
  <rect x="30" y="158" width="140" height="12" rx="2" fill="#fff"/>
</svg>