<svg xmlns="http://www.w3.org/2000/svg" viewBox="0 0 200 200">
  <ellipse cx="100" cy="100" rx="88" ry="62" fill="#003478"/>
  <ellipse cx="100" cy="100" rx="80" ry="55" fill="none" stroke="#6688BB" stroke-width="2"/>
  <path d="M56 118 C58 118 60 116 60 114 L60 92 C60 84 68 78 78 78 C85 78 89 82 91 87 C93 82 97 78 104 78 C114 78 118 86 118 92 L118 98 C118 102 116 106 112 110 L122 118 L112 118 L104 110 L98 110 L98 118 L90 118 L90 104 C90 100 92 96 96 96 C100 96 102 98 102 102 L102 104 L110 104 L110 98 C110 92 106 86 100 86 C96 86 94 88 92 92 L92 110 L88 110 L88 92 C88 86 84 86 80 86 C76 86 72 88 70 92 L70 110 L68 110 L68 118 Z" fill="#FFFFFF"/>
</svg>