<svg xmlns="http://www.w3.org/2000/svg" viewBox="0 0 200 200">
  <path d="M100 45 L100 45 C100 45 55 80 40 100 C30 115 35 135 50 140 C60 143 70 138 78 130 L85 120 L100 100 L115 120 L122 130 C130 138 140 143 150 140 C165 135 170 115 160 100 C145 80 100 45 100 45Z" fill="#1A5BA5" stroke="#0D3A7A" stroke-width="2"/>
  <path d="M100 55 C100 55 65 85 52 102 C44 114 48 128 58 132 C65 135 72 131 78 125 L88 112 L100 95 L112 112 L122 125 C128 131 135 135 142 132 C152 128 156 114 148 102 C135 85 100 55 100 55Z" fill="#2A7BD6"/>
</svg>