<svg xmlns="http://www.w3.org/2000/svg" viewBox="0 0 200 200">
  <path d="M40 40 L160 40 L170 100 L160 170 L40 170 L30 100 Z" fill="#003DA5" stroke="#002266" stroke-width="3"/>
  <path d="M70 130 C70 110 80 95 85 88 C82 92 75 98 72 105 C68 112 66 120 68 130 C70 140 78 150 88 155 C82 152 74 142 70 130 Z" fill="#fff"/>
  <path d="M85 88 C90 78 100 72 108 70 C104 74 95 78 90 85 C86 90 84 98 85 108 C86 102 85 95 85 88 Z" fill="#fff"/>
  <path d="M108 70 C115 65 125 62 132 65 C128 68 120 72 115 78 C112 82 110 90 112 100 C110 92 108 82 108 70 Z" fill="#fff"/>
  <path d="M132 65 C140 62 148 68 150 78 C145 72 138 70 132 72 C128 74 124 80 122 90 C126 82 130 74 132 65 Z" fill="#fff"/>
  <path d="M112 100 C115 110 120 120 128 128 C122 122 116 115 112 108 C108 102 106 95 108 88 C108 94 110 98 112 100 Z" fill="#fff"/>
  <path d="M88 155 C95 162 108 165 118 162 C112 160 100 158 92 152 C88 148 85 142 85 135 C85 142 86 150 88 155 Z" fill="#fff"/>
  <path d="M85 108 C90 105 98 105 105 108 C100 110 92 110 88 108 Z" fill="#fff"/>
  <circle cx="95" cy="82" r="3" fill="#fff"/>
  <circle cx="105" cy="78" r="2.5" fill="#fff"/>
</svg>